<mxfile host="65bd71144e">
    <diagram id="eCkB2Y6Q5kxe24VxFly_" name="event storming">
        <mxGraphModel dx="5613" dy="5140" grid="0" gridSize="10" guides="1" tooltips="1" connect="1" arrows="1" fold="1" page="1" pageScale="1" pageWidth="827" pageHeight="1169" background="#ffffff" math="0" shadow="0">
            <root>
                <mxCell id="0"/>
                <mxCell id="1" parent="0"/>
                <mxCell id="1142" value="" style="rounded=1;whiteSpace=wrap;html=1;fillColor=none;fontColor=#ffffff;strokeColor=#000000;strokeWidth=11;dashed=1;" vertex="1" parent="1">
                    <mxGeometry x="2030.25" y="580" width="1341.75" height="768" as="geometry"/>
                </mxCell>
                <mxCell id="1143" value="" style="rounded=1;whiteSpace=wrap;html=1;fillColor=none;fontColor=#ffffff;strokeColor=#000000;strokeWidth=11;dashed=1;" vertex="1" parent="1">
                    <mxGeometry x="3424.25" y="602.95" width="786.75" height="768" as="geometry"/>
                </mxCell>
                <mxCell id="1069" value="" style="rounded=1;whiteSpace=wrap;html=1;fillColor=none;fontColor=#ffffff;strokeColor=#000000;strokeWidth=11;dashed=1;" vertex="1" parent="1">
                    <mxGeometry x="4648" y="1992" width="302" height="239" as="geometry"/>
                </mxCell>
                <mxCell id="822" value="" style="rounded=1;whiteSpace=wrap;html=1;fillColor=none;fontColor=#ffffff;strokeColor=#000000;strokeWidth=11;dashed=1;" parent="1" vertex="1">
                    <mxGeometry x="4660" y="1307" width="302" height="239" as="geometry"/>
                </mxCell>
                <mxCell id="6" value="&lt;font&gt;Mapear Eventos&lt;/font&gt;" style="rounded=0;whiteSpace=wrap;html=1;strokeColor=#314354;fontSize=30;fillColor=#D9D9D9;fontColor=#030303;fontFamily=Comic Sans MS;fontStyle=2" parent="1" vertex="1">
                    <mxGeometry x="251" y="10" width="283" height="60" as="geometry"/>
                </mxCell>
                <mxCell id="7" value="Dono do Negócio" style="text;html=1;strokeColor=none;fillColor=none;align=center;verticalAlign=middle;whiteSpace=wrap;rounded=0;fontColor=#050505;fontSize=24;fontFamily=Comic Sans MS;fontStyle=2" parent="1" vertex="1">
                    <mxGeometry x="107" y="124" width="134" height="30" as="geometry"/>
                </mxCell>
                <mxCell id="9" value="" style="shape=actor;whiteSpace=wrap;html=1;fontColor=#050505;strokeColor=#1F1F1F;" parent="1" vertex="1">
                    <mxGeometry x="56" y="99" width="47" height="60" as="geometry"/>
                </mxCell>
                <mxCell id="24" value="" style="edgeStyle=none;html=1;fontColor=#050505;startArrow=none;" parent="1" source="12" edge="1">
                    <mxGeometry relative="1" as="geometry">
                        <mxPoint x="201.7411067193675" y="675.0000000000002" as="targetPoint"/>
                    </mxGeometry>
                </mxCell>
                <mxCell id="11" value="Saque Realizado" style="shape=note;whiteSpace=wrap;html=1;backgroundOutline=1;darkOpacity=0.05;fillColor=#f0a30a;fontColor=#000000;strokeColor=#BD7000;size=0;" parent="1" vertex="1">
                    <mxGeometry x="49.5" y="943.8100000000001" width="121.5" height="81.01" as="geometry"/>
                </mxCell>
                <mxCell id="15" value="" style="shape=actor;whiteSpace=wrap;html=1;fontColor=#050505;strokeColor=#1F1F1F;" parent="1" vertex="1">
                    <mxGeometry x="666" y="95" width="47" height="60" as="geometry"/>
                </mxCell>
                <mxCell id="17" value="Gerente Logado" style="shape=note;whiteSpace=wrap;html=1;backgroundOutline=1;darkOpacity=0.05;fillColor=#f0a30a;fontColor=#000000;strokeColor=#BD7000;size=0;" parent="1" vertex="1">
                    <mxGeometry x="640" y="392.32" width="131" height="100" as="geometry"/>
                </mxCell>
                <mxCell id="30" value="Gerente" style="text;html=1;strokeColor=none;fillColor=none;align=center;verticalAlign=middle;whiteSpace=wrap;rounded=0;fontColor=#050505;fontSize=24;fontFamily=Comic Sans MS;fontStyle=2" parent="1" vertex="1">
                    <mxGeometry x="718" y="118" width="134" height="30" as="geometry"/>
                </mxCell>
                <mxCell id="58vuFV5wBw768jWy9gaz-33" value="[Sujeito] [Verbo]" style="text;html=1;strokeColor=none;fillColor=none;align=center;verticalAlign=middle;whiteSpace=wrap;rounded=0;fontColor=#050505;fontSize=24;fontFamily=Comic Sans MS;" parent="1" vertex="1">
                    <mxGeometry x="539" y="40" width="212.5" height="30" as="geometry"/>
                </mxCell>
                <mxCell id="BMqBm4EQpIkL8vKJQ7vR-39" style="edgeStyle=none;html=1;exitX=0.5;exitY=1;exitDx=0;exitDy=0;fontFamily=Comic Sans MS;fontSize=24;fontColor=#030303;" parent="1" source="30" target="30" edge="1">
                    <mxGeometry relative="1" as="geometry"/>
                </mxCell>
                <mxCell id="12" value="Email de Verificação Enviado" style="shape=note;whiteSpace=wrap;html=1;backgroundOutline=1;darkOpacity=0.05;fillColor=#f0a30a;fontColor=#000000;strokeColor=#BD7000;size=0;" parent="1" vertex="1">
                    <mxGeometry x="48.5" y="296" width="118" height="88" as="geometry"/>
                </mxCell>
                <mxCell id="35" value="Acesso do Gerente Aprovado" style="shape=note;whiteSpace=wrap;html=1;backgroundOutline=1;darkOpacity=0.05;fillColor=#f0a30a;fontColor=#000000;strokeColor=#BD7000;verticalAlign=middle;size=0;" parent="1" vertex="1">
                    <mxGeometry x="644" y="288" width="120" height="91" as="geometry"/>
                </mxCell>
                <mxCell id="36" value="Transferência Realizada" style="shape=note;whiteSpace=wrap;html=1;backgroundOutline=1;darkOpacity=0.05;fillColor=#f0a30a;fontColor=#000000;strokeColor=#BD7000;size=0;" parent="1" vertex="1">
                    <mxGeometry x="51.25" y="1157.0000000000002" width="125" height="89" as="geometry"/>
                </mxCell>
                <mxCell id="39" value="Comandos em ação" style="rounded=0;whiteSpace=wrap;html=1;strokeColor=#314354;fontSize=30;fillColor=#D9D9D9;fontColor=#030303;fontFamily=Comic Sans MS;fontStyle=2" parent="1" vertex="1">
                    <mxGeometry x="4205" y="344.31999999999994" width="283" height="60" as="geometry"/>
                </mxCell>
                <mxCell id="40" value="[Verbo] [Sujeito]" style="text;html=1;strokeColor=none;fillColor=none;align=center;verticalAlign=middle;whiteSpace=wrap;rounded=0;fontColor=#050505;fontSize=24;fontFamily=Comic Sans MS;" parent="1" vertex="1">
                    <mxGeometry x="4509" y="366.31999999999994" width="212.5" height="30" as="geometry"/>
                </mxCell>
                <mxCell id="85" value="Linha do tempo" style="rounded=0;whiteSpace=wrap;html=1;strokeColor=#314354;fontSize=30;fillColor=#D9D9D9;fontColor=#030303;fontFamily=Comic Sans MS;fontStyle=2" parent="1" vertex="1">
                    <mxGeometry x="3845" y="340" width="283" height="60" as="geometry"/>
                </mxCell>
                <mxCell id="Dizd84sY8us1NHsyG9Zg-530" value="Delimitações" style="rounded=0;whiteSpace=wrap;html=1;strokeColor=#314354;fontSize=30;fillColor=#D9D9D9;fontColor=#030303;fontFamily=Comic Sans MS;fontStyle=2" parent="1" vertex="1">
                    <mxGeometry x="3507" y="337" width="283" height="60" as="geometry"/>
                </mxCell>
                <mxCell id="ym7X-dYkMH4E9a0Dyk0I-491" value="Atores/Políticas" style="rounded=0;whiteSpace=wrap;html=1;strokeColor=#314354;fontSize=30;fillColor=#D9D9D9;fontColor=#030303;fontFamily=Comic Sans MS;fontStyle=2" parent="1" vertex="1">
                    <mxGeometry x="4764" y="344.31999999999994" width="283" height="60" as="geometry"/>
                </mxCell>
                <mxCell id="732" value="Depósito Realizado" style="shape=note;whiteSpace=wrap;html=1;backgroundOutline=1;darkOpacity=0.05;fillColor=#f0a30a;fontColor=#000000;strokeColor=#BD7000;size=0;" parent="1" vertex="1">
                    <mxGeometry x="50.5" y="837" width="118" height="88" as="geometry"/>
                </mxCell>
                <mxCell id="789" value="Login&amp;nbsp;" style="text;html=1;strokeColor=none;fillColor=none;align=center;verticalAlign=middle;whiteSpace=wrap;rounded=0;dashed=1;fontSize=24;fontColor=#000000;" parent="1" vertex="1">
                    <mxGeometry x="3689" y="540.1899999999999" width="297" height="30" as="geometry"/>
                </mxCell>
                <mxCell id="800" value="&lt;span style=&quot;font-size: 24px;&quot;&gt;Sistema de email&lt;/span&gt;" style="shape=note;whiteSpace=wrap;html=1;backgroundOutline=1;darkOpacity=0.05;fillColor=#fad9d5;strokeColor=#ae4132;verticalAlign=middle;size=0;fontColor=#000000;" parent="1" vertex="1">
                    <mxGeometry x="4748.5" y="1393" width="120" height="91" as="geometry"/>
                </mxCell>
                <mxCell id="801" value="&lt;strong&gt;Usuário Registrado&lt;/strong&gt;" style="shape=note;whiteSpace=wrap;html=1;backgroundOutline=1;darkOpacity=0.05;fillColor=#f0a30a;fontColor=#000000;strokeColor=#BD7000;size=0;" parent="1" vertex="1">
                    <mxGeometry x="56" y="177" width="99" height="100" as="geometry"/>
                </mxCell>
                <mxCell id="803" value="Email Verificado" style="shape=note;whiteSpace=wrap;html=1;backgroundOutline=1;darkOpacity=0.05;fillColor=#f0a30a;fontColor=#000000;strokeColor=#BD7000;size=0;" parent="1" vertex="1">
                    <mxGeometry x="46.5" y="404.32" width="118" height="88" as="geometry"/>
                </mxCell>
                <mxCell id="805" value="Login Bem-Sucedido" style="shape=note;whiteSpace=wrap;html=1;backgroundOutline=1;darkOpacity=0.05;fillColor=#f0a30a;fontColor=#000000;strokeColor=#BD7000;size=0;" parent="1" vertex="1">
                    <mxGeometry x="50.5" y="614" width="118" height="88" as="geometry"/>
                </mxCell>
                <mxCell id="806" value="Conta Bancária Criada" style="shape=note;whiteSpace=wrap;html=1;backgroundOutline=1;darkOpacity=0.05;fillColor=#f0a30a;fontColor=#000000;strokeColor=#BD7000;size=0;" parent="1" vertex="1">
                    <mxGeometry x="48.5" y="723" width="118" height="88" as="geometry"/>
                </mxCell>
                <mxCell id="807" value="Usuário Logado" style="shape=note;whiteSpace=wrap;html=1;backgroundOutline=1;darkOpacity=0.05;fillColor=#f0a30a;fontColor=#000000;strokeColor=#BD7000;size=0;" parent="1" vertex="1">
                    <mxGeometry x="50.5" y="514.95" width="118" height="88" as="geometry"/>
                </mxCell>
                <mxCell id="808" value="Saldo Consultado" style="shape=note;whiteSpace=wrap;html=1;backgroundOutline=1;darkOpacity=0.05;fillColor=#f0a30a;fontColor=#000000;strokeColor=#BD7000;size=0;" parent="1" vertex="1">
                    <mxGeometry x="51.25" y="1041" width="118" height="88" as="geometry"/>
                </mxCell>
                <mxCell id="809" value="&lt;strong&gt;Gerente Registrado&lt;/strong&gt;" style="shape=note;whiteSpace=wrap;html=1;backgroundOutline=1;darkOpacity=0.05;fillColor=#f0a30a;fontColor=#000000;strokeColor=#BD7000;size=0;" parent="1" vertex="1">
                    <mxGeometry x="648" y="174" width="99" height="100" as="geometry"/>
                </mxCell>
                <mxCell id="810" value="Conta de Cliente Criada" style="shape=note;whiteSpace=wrap;html=1;backgroundOutline=1;darkOpacity=0.05;fillColor=#f0a30a;fontColor=#000000;strokeColor=#BD7000;size=0;" parent="1" vertex="1">
                    <mxGeometry x="640" y="505.1900000000001" width="131" height="100" as="geometry"/>
                </mxCell>
                <mxCell id="812" value="Aprovação de Transação Solicitada" style="shape=note;whiteSpace=wrap;html=1;backgroundOutline=1;darkOpacity=0.05;fillColor=#f0a30a;fontColor=#000000;strokeColor=#BD7000;size=0;" parent="1" vertex="1">
                    <mxGeometry x="642" y="636" width="131" height="100" as="geometry"/>
                </mxCell>
                <mxCell id="824" value="Sistema de notificação" style="text;html=1;strokeColor=none;fillColor=none;align=center;verticalAlign=middle;whiteSpace=wrap;rounded=0;dashed=1;fontSize=24;fontColor=#000000;" parent="1" vertex="1">
                    <mxGeometry x="4700" y="1335" width="206" height="30" as="geometry"/>
                </mxCell>
                <mxCell id="845" value="Conta bancária" style="text;html=1;strokeColor=none;fillColor=none;align=center;verticalAlign=middle;whiteSpace=wrap;rounded=0;dashed=1;fontSize=24;fontColor=#000000;" parent="1" vertex="1">
                    <mxGeometry x="4782" y="474" width="297" height="82" as="geometry"/>
                </mxCell>
                <mxCell id="909" value="Tela Registro" style="shape=note;whiteSpace=wrap;html=1;backgroundOutline=1;darkOpacity=0.05;fillColor=#60a917;fontColor=#ffffff;strokeColor=#2D7600;verticalAlign=middle;size=0;" parent="1" vertex="1">
                    <mxGeometry x="2345.25" y="706" width="120" height="91" as="geometry"/>
                </mxCell>
                <mxCell id="1004" value="user" style="shape=note;whiteSpace=wrap;html=1;backgroundOutline=1;darkOpacity=0.05;fillColor=#FFFF00;fontColor=#000000;strokeColor=#FFFF00;verticalAlign=middle;size=0;direction=north;fontSize=20;" parent="1" vertex="1">
                    <mxGeometry x="2171" y="893" width="76" height="63" as="geometry"/>
                </mxCell>
                <mxCell id="1024" value="Senha Alterada" style="shape=note;whiteSpace=wrap;html=1;backgroundOutline=1;darkOpacity=0.05;fillColor=#f0a30a;fontColor=#000000;strokeColor=#BD7000;size=0;" vertex="1" parent="1">
                    <mxGeometry x="49.5" y="1271.0000000000002" width="125" height="89" as="geometry"/>
                </mxCell>
                <mxCell id="1025" value="Conta Encerrada" style="shape=note;whiteSpace=wrap;html=1;backgroundOutline=1;darkOpacity=0.05;fillColor=#f0a30a;fontColor=#000000;strokeColor=#BD7000;size=0;" vertex="1" parent="1">
                    <mxGeometry x="50.5" y="1382.0000000000002" width="125" height="89" as="geometry"/>
                </mxCell>
                <mxCell id="1026" value="Transação Aprovada pelo Gerente" style="shape=note;whiteSpace=wrap;html=1;backgroundOutline=1;darkOpacity=0.05;fillColor=#f0a30a;fontColor=#000000;strokeColor=#BD7000;size=0;" vertex="1" parent="1">
                    <mxGeometry x="644" y="751" width="131" height="100" as="geometry"/>
                </mxCell>
                <mxCell id="1027" value="Transação Rejeitada pelo Gerente" style="shape=note;whiteSpace=wrap;html=1;backgroundOutline=1;darkOpacity=0.05;fillColor=#f0a30a;fontColor=#000000;strokeColor=#BD7000;size=0;" vertex="1" parent="1">
                    <mxGeometry x="646" y="862" width="131" height="100" as="geometry"/>
                </mxCell>
                <mxCell id="1028" value="Consulta de Relatório de Atividades" style="shape=note;whiteSpace=wrap;html=1;backgroundOutline=1;darkOpacity=0.05;fillColor=#f0a30a;fontColor=#000000;strokeColor=#BD7000;size=0;" vertex="1" parent="1">
                    <mxGeometry x="646" y="972.7" width="131" height="100" as="geometry"/>
                </mxCell>
                <mxCell id="1029" value="Conta de Cliente Encerrada" style="shape=note;whiteSpace=wrap;html=1;backgroundOutline=1;darkOpacity=0.05;fillColor=#f0a30a;fontColor=#000000;strokeColor=#BD7000;size=0;" vertex="1" parent="1">
                    <mxGeometry x="644" y="1087" width="131" height="100" as="geometry"/>
                </mxCell>
                <mxCell id="1030" value="Conta de Cliente Suspensa" style="shape=note;whiteSpace=wrap;html=1;backgroundOutline=1;darkOpacity=0.05;fillColor=#f0a30a;fontColor=#000000;strokeColor=#BD7000;size=0;" vertex="1" parent="1">
                    <mxGeometry x="648" y="1207" width="131" height="100" as="geometry"/>
                </mxCell>
                <mxCell id="1031" value="Acesso às Informações de Crédito Aprovado" style="shape=note;whiteSpace=wrap;html=1;backgroundOutline=1;darkOpacity=0.05;fillColor=#f0a30a;fontColor=#000000;strokeColor=#BD7000;size=0;" vertex="1" parent="1">
                    <mxGeometry x="648" y="1327" width="131" height="100" as="geometry"/>
                </mxCell>
                <mxCell id="1032" value="Relatório Financeiro Gerado" style="shape=note;whiteSpace=wrap;html=1;backgroundOutline=1;darkOpacity=0.05;fillColor=#f0a30a;fontColor=#000000;strokeColor=#BD7000;size=0;" vertex="1" parent="1">
                    <mxGeometry x="650" y="1461" width="131" height="100" as="geometry"/>
                </mxCell>
                <mxCell id="1033" value="Login de Gerente Expirado" style="shape=note;whiteSpace=wrap;html=1;backgroundOutline=1;darkOpacity=0.05;fillColor=#f0a30a;fontColor=#000000;strokeColor=#BD7000;size=0;" vertex="1" parent="1">
                    <mxGeometry x="648" y="1579" width="131" height="100" as="geometry"/>
                </mxCell>
                <mxCell id="1034" value="Permissões de Gerente Atualizadas" style="shape=note;whiteSpace=wrap;html=1;backgroundOutline=1;darkOpacity=0.05;fillColor=#f0a30a;fontColor=#000000;strokeColor=#BD7000;size=0;" vertex="1" parent="1">
                    <mxGeometry x="648" y="1697" width="131" height="100" as="geometry"/>
                </mxCell>
                <mxCell id="1035" value="Auditoria de Transações Realizada" style="shape=note;whiteSpace=wrap;html=1;backgroundOutline=1;darkOpacity=0.05;fillColor=#f0a30a;fontColor=#000000;strokeColor=#BD7000;size=0;" vertex="1" parent="1">
                    <mxGeometry x="648" y="1818" width="131" height="100" as="geometry"/>
                </mxCell>
                <mxCell id="1036" value="&lt;li&gt;&lt;strong&gt;Gerenciamento e Segurança:&lt;/strong&gt; Os eventos são focados no gerenciamento das contas bancárias dos clientes e em garantir a segurança das transações e do sistema.&lt;/li&gt;&lt;li&gt;&lt;strong&gt;Autonomia do Gerente:&lt;/strong&gt; O gerente tem o papel de aprovar, rejeitar e supervisionar transações, bem como criar e encerrar contas.&lt;/li&gt;" style="text;whiteSpace=wrap;html=1;fontColor=#000000;" vertex="1" parent="1">
                    <mxGeometry x="806" y="162" width="550" height="92" as="geometry"/>
                </mxCell>
                <mxCell id="1037" value="&lt;strong&gt;Usuário Registrado&lt;/strong&gt;" style="shape=note;whiteSpace=wrap;html=1;backgroundOutline=1;darkOpacity=0.05;fillColor=#f0a30a;fontColor=#000000;strokeColor=#BD7000;size=0;" vertex="1" parent="1">
                    <mxGeometry x="2351.25" y="811" width="99" height="100" as="geometry"/>
                </mxCell>
                <mxCell id="1038" value="Email de Verificação Enviado" style="shape=note;whiteSpace=wrap;html=1;backgroundOutline=1;darkOpacity=0.05;fillColor=#f0a30a;fontColor=#000000;strokeColor=#BD7000;size=0;" vertex="1" parent="1">
                    <mxGeometry x="2812" y="812.4999999999999" width="118" height="88" as="geometry"/>
                </mxCell>
                <mxCell id="1039" value="Email Verificado" style="shape=note;whiteSpace=wrap;html=1;backgroundOutline=1;darkOpacity=0.05;fillColor=#f0a30a;fontColor=#000000;strokeColor=#BD7000;size=0;" vertex="1" parent="1">
                    <mxGeometry x="3221" y="804.9999999999999" width="118" height="88" as="geometry"/>
                </mxCell>
                <mxCell id="1040" value="Usuário registrado" style="shape=note;whiteSpace=wrap;html=1;backgroundOutline=1;darkOpacity=0.05;fillColor=#f0a30a;fontColor=#000000;strokeColor=#BD7000;size=0;" vertex="1" parent="1">
                    <mxGeometry x="4032" y="799.5" width="118" height="88" as="geometry"/>
                </mxCell>
                <mxCell id="1042" value="&lt;strong style=&quot;box-sizing: inherit; font-weight: 700; font-family: source-serif-pro, Georgia, Cambria, &amp;quot;Times New Roman&amp;quot;, Times, serif; color: rgb(36, 36, 36); font-size: 20px; font-style: normal; font-variant-ligatures: normal; font-variant-caps: normal; letter-spacing: -0.06px; orphans: 2; text-align: start; text-indent: 0px; text-transform: none; widows: 2; word-spacing: 0px; -webkit-text-stroke-width: 0px; background-color: rgb(255, 255, 255); text-decoration-thickness: initial; text-decoration-style: initial; text-decoration-color: initial;&quot; class=&quot;mv gv&quot;&gt;&lt;em style=&quot;box-sizing: inherit; font-style: italic;&quot; class=&quot;nv&quot;&gt;Representação:&lt;/em&gt;&lt;/strong&gt;&lt;span style=&quot;color: rgb(36, 36, 36); font-family: source-serif-pro, Georgia, Cambria, &amp;quot;Times New Roman&amp;quot;, Times, serif; font-size: 20px; font-style: normal; font-variant-ligatures: normal; font-variant-caps: normal; font-weight: 400; letter-spacing: -0.06px; orphans: 2; text-align: start; text-indent: 0px; text-transform: none; widows: 2; word-spacing: 0px; -webkit-text-stroke-width: 0px; background-color: rgb(255, 255, 255); text-decoration-thickness: initial; text-decoration-style: initial; text-decoration-color: initial; float: none; display: inline !important;&quot;&gt;&lt;span&gt;&amp;nbsp;&lt;/span&gt;sticky notes&lt;span&gt;&amp;nbsp;&lt;/span&gt;&lt;/span&gt;&lt;strong style=&quot;box-sizing: inherit; font-weight: 700; font-family: source-serif-pro, Georgia, Cambria, &amp;quot;Times New Roman&amp;quot;, Times, serif; color: rgb(36, 36, 36); font-size: 20px; font-style: normal; font-variant-ligatures: normal; font-variant-caps: normal; letter-spacing: -0.06px; orphans: 2; text-align: start; text-indent: 0px; text-transform: none; widows: 2; word-spacing: 0px; -webkit-text-stroke-width: 0px; background-color: rgb(255, 255, 255); text-decoration-thickness: initial; text-decoration-style: initial; text-decoration-color: initial;&quot; class=&quot;mv gv&quot;&gt;&lt;em style=&quot;box-sizing: inherit; font-style: italic;&quot; class=&quot;nv&quot;&gt;Laranja&lt;/em&gt;&lt;/strong&gt;&lt;span style=&quot;color: rgb(36, 36, 36); font-family: source-serif-pro, Georgia, Cambria, &amp;quot;Times New Roman&amp;quot;, Times, serif; font-size: 20px; font-style: normal; font-variant-ligatures: normal; font-variant-caps: normal; font-weight: 400; letter-spacing: -0.06px; orphans: 2; text-align: start; text-indent: 0px; text-transform: none; widows: 2; word-spacing: 0px; -webkit-text-stroke-width: 0px; background-color: rgb(255, 255, 255); text-decoration-thickness: initial; text-decoration-style: initial; text-decoration-color: initial; float: none; display: inline !important;&quot;&gt;.&lt;/span&gt;" style="text;whiteSpace=wrap;html=1;fontColor=#000000;" vertex="1" parent="1">
                    <mxGeometry x="773.0033333333336" y="36.99666666666673" width="330" height="46" as="geometry"/>
                </mxCell>
                <mxCell id="1044" value="Conta Bancária Criada" style="shape=note;whiteSpace=wrap;html=1;backgroundOutline=1;darkOpacity=0.05;fillColor=#f0a30a;fontColor=#000000;strokeColor=#BD7000;size=0;" vertex="1" parent="1">
                    <mxGeometry x="4503" y="785.5" width="118" height="88" as="geometry"/>
                </mxCell>
                <mxCell id="1045" value="Depósito Realizado" style="shape=note;whiteSpace=wrap;html=1;backgroundOutline=1;darkOpacity=0.05;fillColor=#f0a30a;fontColor=#000000;strokeColor=#BD7000;size=0;" vertex="1" parent="1">
                    <mxGeometry x="5323" y="784" width="118" height="88" as="geometry"/>
                </mxCell>
                <mxCell id="1046" value="Saque Realizado" style="shape=note;whiteSpace=wrap;html=1;backgroundOutline=1;darkOpacity=0.05;fillColor=#f0a30a;fontColor=#000000;strokeColor=#BD7000;size=0;" vertex="1" parent="1">
                    <mxGeometry x="5730.5" y="781" width="121.5" height="81.01" as="geometry"/>
                </mxCell>
                <mxCell id="1047" value="Saldo Consultado" style="shape=note;whiteSpace=wrap;html=1;backgroundOutline=1;darkOpacity=0.05;fillColor=#f0a30a;fontColor=#000000;strokeColor=#BD7000;size=0;" vertex="1" parent="1">
                    <mxGeometry x="4871.5" y="781" width="118" height="88" as="geometry"/>
                </mxCell>
                <mxCell id="1048" value="Transferência Realizada" style="shape=note;whiteSpace=wrap;html=1;backgroundOutline=1;darkOpacity=0.05;fillColor=#f0a30a;fontColor=#000000;strokeColor=#BD7000;size=0;" vertex="1" parent="1">
                    <mxGeometry x="6180" y="781.5000000000002" width="125" height="89" as="geometry"/>
                </mxCell>
                <mxCell id="1049" value="Senha Alterada" style="shape=note;whiteSpace=wrap;html=1;backgroundOutline=1;darkOpacity=0.05;fillColor=#f0a30a;fontColor=#000000;strokeColor=#BD7000;size=0;" vertex="1" parent="1">
                    <mxGeometry x="3801" y="1203.5100000000002" width="125" height="89" as="geometry"/>
                </mxCell>
                <mxCell id="1050" value="Conta Encerrada" style="shape=note;whiteSpace=wrap;html=1;backgroundOutline=1;darkOpacity=0.05;fillColor=#f0a30a;fontColor=#000000;strokeColor=#BD7000;size=0;" vertex="1" parent="1">
                    <mxGeometry x="6595" y="781.0000000000002" width="125" height="89" as="geometry"/>
                </mxCell>
                <mxCell id="1052" value="Proposta de Crédito Pendente por Mais de 10 Dias" style="shape=note;whiteSpace=wrap;html=1;backgroundOutline=1;darkOpacity=0.05;fillColor=#f0a30a;fontColor=#000000;strokeColor=#BD7000;size=0;" vertex="1" parent="1">
                    <mxGeometry x="814.5" y="1323" width="131" height="100" as="geometry"/>
                </mxCell>
                <mxCell id="1053" value="Conta Inativa por Mais de 6 Meses" style="shape=note;whiteSpace=wrap;html=1;backgroundOutline=1;darkOpacity=0.05;fillColor=#f0a30a;fontColor=#000000;strokeColor=#BD7000;size=0;" vertex="1" parent="1">
                    <mxGeometry x="1122" y="988" width="131" height="100" as="geometry"/>
                </mxCell>
                <mxCell id="1054" value="Transação Não Aprovada em 24 Horas" style="shape=note;whiteSpace=wrap;html=1;backgroundOutline=1;darkOpacity=0.05;fillColor=#f0a30a;fontColor=#000000;strokeColor=#BD7000;size=0;" vertex="1" parent="1">
                    <mxGeometry x="813" y="869" width="134" height="100" as="geometry"/>
                </mxCell>
                <mxCell id="1055" value="Senha Não Alterada por Mais de 90 Dias" style="shape=note;whiteSpace=wrap;html=1;backgroundOutline=1;darkOpacity=0.05;fillColor=#f0a30a;fontColor=#000000;strokeColor=#BD7000;size=0;" vertex="1" parent="1">
                    <mxGeometry x="192" y="1310" width="134" height="100" as="geometry"/>
                </mxCell>
                <mxCell id="1056" value="Revisão de Limite de Crédito Não Realizada em 12 Meses" style="shape=note;whiteSpace=wrap;html=1;backgroundOutline=1;darkOpacity=0.05;fillColor=#f0a30a;fontColor=#000000;strokeColor=#BD7000;size=0;" vertex="1" parent="1">
                    <mxGeometry x="813" y="984" width="131" height="100" as="geometry"/>
                </mxCell>
                <mxCell id="1057" value="Saldo Negativo por Mais de 30 Dias" style="shape=note;whiteSpace=wrap;html=1;backgroundOutline=1;darkOpacity=0.05;fillColor=#f0a30a;fontColor=#000000;strokeColor=#BD7000;size=0;" vertex="1" parent="1">
                    <mxGeometry x="977" y="984" width="131" height="100" as="geometry"/>
                </mxCell>
                <mxCell id="1058" value="Login Não Realizado em 6 Meses" style="shape=note;whiteSpace=wrap;html=1;backgroundOutline=1;darkOpacity=0.05;fillColor=#f0a30a;fontColor=#000000;strokeColor=#BD7000;size=0;" vertex="1" parent="1">
                    <mxGeometry x="813" y="1210" width="131" height="100" as="geometry"/>
                </mxCell>
                <mxCell id="1060" value="Auditoria de Contas Anual Não Concluída" style="shape=note;whiteSpace=wrap;html=1;backgroundOutline=1;darkOpacity=0.05;fillColor=#f0a30a;fontColor=#000000;strokeColor=#BD7000;size=0;" vertex="1" parent="1">
                    <mxGeometry x="811" y="1818" width="131" height="100" as="geometry"/>
                </mxCell>
                <mxCell id="1061" value="Email enviado" style="shape=note;whiteSpace=wrap;html=1;backgroundOutline=1;darkOpacity=0.05;fillColor=#f0a30a;fontColor=#000000;strokeColor=#BD7000;size=0;" vertex="1" parent="1">
                    <mxGeometry x="191" y="355" width="118" height="88" as="geometry"/>
                </mxCell>
                <mxCell id="1062" value="Notificação enviada" style="shape=note;whiteSpace=wrap;html=1;backgroundOutline=1;darkOpacity=0.05;fillColor=#f0a30a;fontColor=#000000;strokeColor=#BD7000;size=0;" vertex="1" parent="1">
                    <mxGeometry x="206" y="763" width="118" height="88" as="geometry"/>
                </mxCell>
                <mxCell id="1063" value="Notificação enviada" style="shape=note;whiteSpace=wrap;html=1;backgroundOutline=1;darkOpacity=0.05;fillColor=#f0a30a;fontColor=#000000;strokeColor=#BD7000;size=0;" vertex="1" parent="1">
                    <mxGeometry x="208" y="889" width="118" height="88" as="geometry"/>
                </mxCell>
                <mxCell id="1064" value="Notificação enviada" style="shape=note;whiteSpace=wrap;html=1;backgroundOutline=1;darkOpacity=0.05;fillColor=#f0a30a;fontColor=#000000;strokeColor=#BD7000;size=0;" vertex="1" parent="1">
                    <mxGeometry x="206" y="1015.51" width="118" height="88" as="geometry"/>
                </mxCell>
                <mxCell id="1065" value="Notificação enviada" style="shape=note;whiteSpace=wrap;html=1;backgroundOutline=1;darkOpacity=0.05;fillColor=#f0a30a;fontColor=#000000;strokeColor=#BD7000;size=0;" vertex="1" parent="1">
                    <mxGeometry x="197" y="1202" width="118" height="88" as="geometry"/>
                </mxCell>
                <mxCell id="1068" value="Sistema de notificação" style="text;html=1;strokeColor=none;fillColor=none;align=center;verticalAlign=middle;whiteSpace=wrap;rounded=0;dashed=1;fontSize=24;fontColor=#000000;" vertex="1" parent="1">
                    <mxGeometry x="4688" y="2020" width="206" height="30" as="geometry"/>
                </mxCell>
                <mxCell id="1070" value="Notificação enviada" style="shape=note;whiteSpace=wrap;html=1;backgroundOutline=1;darkOpacity=0.05;fillColor=#f0a30a;fontColor=#000000;strokeColor=#BD7000;size=0;" vertex="1" parent="1">
                    <mxGeometry x="4746" y="958" width="118" height="88" as="geometry"/>
                </mxCell>
                <mxCell id="1081" value="Como será tratado o fluxo de erros?" style="shape=note;whiteSpace=wrap;html=1;backgroundOutline=1;darkOpacity=0.05;fillColor=#d80073;fontColor=#ffffff;strokeColor=#A50040;verticalAlign=middle;size=0;" vertex="1" parent="1">
                    <mxGeometry x="2210" y="620" width="120" height="91" as="geometry"/>
                </mxCell>
                <mxCell id="1082" value="Como será realizaod as notificação?" style="shape=note;whiteSpace=wrap;html=1;backgroundOutline=1;darkOpacity=0.05;fillColor=#d80073;fontColor=#ffffff;strokeColor=#A50040;verticalAlign=middle;size=0;" vertex="1" parent="1">
                    <mxGeometry x="4746" y="1084" width="120" height="91" as="geometry"/>
                </mxCell>
                <mxCell id="1083" value="Como faremos com o níveld e acesso ao usuário?" style="shape=note;whiteSpace=wrap;html=1;backgroundOutline=1;darkOpacity=0.05;fillColor=#d80073;fontColor=#ffffff;strokeColor=#A50040;verticalAlign=middle;size=0;" vertex="1" parent="1">
                    <mxGeometry x="2341" y="1168" width="120" height="91" as="geometry"/>
                </mxCell>
                <mxCell id="1084" value="Validação de Identidade do Usuário" style="shape=note;whiteSpace=wrap;html=1;backgroundOutline=1;darkOpacity=0.05;fillColor=#B266FF;fontColor=#000000;strokeColor=#B266FF;verticalAlign=middle;size=0;" vertex="1" parent="1">
                    <mxGeometry x="2472.25" y="811" width="120" height="92" as="geometry"/>
                </mxCell>
                <mxCell id="1085" value="Bloqueio de Conta após Múltiplas Tentativas de Login Falhas" style="shape=note;whiteSpace=wrap;html=1;backgroundOutline=1;darkOpacity=0.05;fillColor=#B266FF;fontColor=#000000;strokeColor=#B266FF;verticalAlign=middle;size=0;" vertex="1" parent="1">
                    <mxGeometry x="3581.25" y="696.2" width="120" height="92" as="geometry"/>
                </mxCell>
                <mxCell id="1087" value="Login iniciado" style="shape=note;whiteSpace=wrap;html=1;backgroundOutline=1;darkOpacity=0.05;fillColor=#f0a30a;fontColor=#000000;strokeColor=#BD7000;size=0;" vertex="1" parent="1">
                    <mxGeometry x="3583.25" y="803.5" width="118" height="88" as="geometry"/>
                </mxCell>
                <mxCell id="1088" value="Alteração Obrigatória de Senha após 90 Dias" style="shape=note;whiteSpace=wrap;html=1;backgroundOutline=1;darkOpacity=0.05;fillColor=#B266FF;fontColor=#000000;strokeColor=#B266FF;verticalAlign=middle;size=0;" vertex="1" parent="1">
                    <mxGeometry x="3795" y="1084" width="120" height="92" as="geometry"/>
                </mxCell>
                <mxCell id="1089" value="Aprovação de Transações de Alto Valor" style="shape=note;whiteSpace=wrap;html=1;backgroundOutline=1;darkOpacity=0.05;fillColor=#B266FF;fontColor=#000000;strokeColor=#B266FF;verticalAlign=middle;size=0;" vertex="1" parent="1">
                    <mxGeometry x="5732" y="935.19" width="120" height="92" as="geometry"/>
                </mxCell>
                <mxCell id="1092" value="Reativação de Conta Inativa" style="shape=note;whiteSpace=wrap;html=1;backgroundOutline=1;darkOpacity=0.05;fillColor=#B266FF;fontColor=#000000;strokeColor=#B266FF;verticalAlign=middle;size=0;" vertex="1" parent="1">
                    <mxGeometry x="2496" y="1023.3100000000001" width="120" height="92" as="geometry"/>
                </mxCell>
                <mxCell id="1093" value="Suspensão de Conta por Atividade Suspeita" style="shape=note;whiteSpace=wrap;html=1;backgroundOutline=1;darkOpacity=0.05;fillColor=#B266FF;fontColor=#000000;strokeColor=#B266FF;verticalAlign=middle;size=0;" vertex="1" parent="1">
                    <mxGeometry x="2180.75" y="1027.19" width="120" height="92" as="geometry"/>
                </mxCell>
                <mxCell id="1094" value="Atualização de Dados Pessoais" style="shape=note;whiteSpace=wrap;html=1;backgroundOutline=1;darkOpacity=0.05;fillColor=#B266FF;fontColor=#000000;strokeColor=#B266FF;verticalAlign=middle;size=0;" vertex="1" parent="1">
                    <mxGeometry x="2334.75" y="1023.19" width="120" height="92" as="geometry"/>
                </mxCell>
                <mxCell id="1095" value="" style="rounded=1;whiteSpace=wrap;html=1;fillColor=none;fontColor=#ffffff;strokeColor=#000000;strokeWidth=11;dashed=1;" vertex="1" parent="1">
                    <mxGeometry x="2377" y="1427" width="302" height="239" as="geometry"/>
                </mxCell>
                <mxCell id="1096" value="Sistema de Verificação de Identidade (KYC - Know Your Customer)" style="shape=note;whiteSpace=wrap;html=1;backgroundOutline=1;darkOpacity=0.05;fillColor=#fad9d5;strokeColor=#ae4132;verticalAlign=middle;size=0;fontColor=#000000;" vertex="1" parent="1">
                    <mxGeometry x="2465.5" y="1513" width="120" height="91" as="geometry"/>
                </mxCell>
                <mxCell id="1097" value="Sistema de verificação" style="text;html=1;strokeColor=none;fillColor=none;align=center;verticalAlign=middle;whiteSpace=wrap;rounded=0;dashed=1;fontSize=24;fontColor=#000000;" vertex="1" parent="1">
                    <mxGeometry x="2417" y="1455" width="206" height="30" as="geometry"/>
                </mxCell>
                <mxCell id="1098" value="" style="rounded=1;whiteSpace=wrap;html=1;fillColor=none;fontColor=#ffffff;strokeColor=#000000;strokeWidth=11;dashed=1;" vertex="1" parent="1">
                    <mxGeometry x="2759" y="1404" width="302" height="239" as="geometry"/>
                </mxCell>
                <mxCell id="1101" style="edgeStyle=none;html=1;entryX=0.553;entryY=1.195;entryDx=0;entryDy=0;entryPerimeter=0;fontColor=#000000;" edge="1" parent="1" source="1099" target="1100">
                    <mxGeometry relative="1" as="geometry"/>
                </mxCell>
                <mxCell id="1099" value="Sistema de Autenticação e Autorização" style="shape=note;whiteSpace=wrap;html=1;backgroundOutline=1;darkOpacity=0.05;fillColor=#fad9d5;strokeColor=#ae4132;verticalAlign=middle;size=0;fontColor=#000000;" vertex="1" parent="1">
                    <mxGeometry x="2850" y="1511" width="120" height="91" as="geometry"/>
                </mxCell>
                <mxCell id="1100" value="Sistema de Autenticação e Autorização" style="text;html=1;strokeColor=none;fillColor=none;align=center;verticalAlign=middle;whiteSpace=wrap;rounded=0;dashed=1;fontSize=24;fontColor=#000000;" vertex="1" parent="1">
                    <mxGeometry x="2799" y="1441" width="206" height="30" as="geometry"/>
                </mxCell>
                <mxCell id="1102" value="&lt;span style=&quot;font-size: 24px;&quot;&gt;Sistema de notificação&lt;/span&gt;" style="shape=note;whiteSpace=wrap;html=1;backgroundOutline=1;darkOpacity=0.05;fillColor=#fad9d5;strokeColor=#ae4132;verticalAlign=middle;size=0;fontColor=#000000;" vertex="1" parent="1">
                    <mxGeometry x="4745" y="2078.8" width="120" height="91" as="geometry"/>
                </mxCell>
                <mxCell id="1103" value="(E-mail/SMS/API de Push Notification)" style="text;whiteSpace=wrap;html=1;fontColor=#000000;" vertex="1" parent="1">
                    <mxGeometry x="4694.004285714286" y="2181.7985714285714" width="232" height="36" as="geometry"/>
                </mxCell>
                <mxCell id="1104" value="" style="rounded=1;whiteSpace=wrap;html=1;fillColor=none;fontColor=#ffffff;strokeColor=#000000;strokeWidth=11;dashed=1;" vertex="1" parent="1">
                    <mxGeometry x="6062" y="1249" width="302" height="239" as="geometry"/>
                </mxCell>
                <mxCell id="1105" value="Sistema de pagamento" style="text;html=1;strokeColor=none;fillColor=none;align=center;verticalAlign=middle;whiteSpace=wrap;rounded=0;dashed=1;fontSize=24;fontColor=#000000;" vertex="1" parent="1">
                    <mxGeometry x="6102" y="1277" width="206" height="30" as="geometry"/>
                </mxCell>
                <mxCell id="1106" value="Gateways e APIs de Pagamentos" style="shape=note;whiteSpace=wrap;html=1;backgroundOutline=1;darkOpacity=0.05;fillColor=#fad9d5;strokeColor=#ae4132;verticalAlign=middle;size=0;fontColor=#000000;" vertex="1" parent="1">
                    <mxGeometry x="6159" y="1335.8" width="120" height="91" as="geometry"/>
                </mxCell>
                <mxCell id="1108" value="" style="rounded=1;whiteSpace=wrap;html=1;fillColor=none;fontColor=#ffffff;strokeColor=#000000;strokeWidth=11;dashed=1;" vertex="1" parent="1">
                    <mxGeometry x="5812" y="1667" width="302" height="239" as="geometry"/>
                </mxCell>
                <mxCell id="1109" value="Análise de Fraude" style="text;html=1;strokeColor=none;fillColor=none;align=center;verticalAlign=middle;whiteSpace=wrap;rounded=0;dashed=1;fontSize=24;fontColor=#000000;" vertex="1" parent="1">
                    <mxGeometry x="5852" y="1695" width="206" height="30" as="geometry"/>
                </mxCell>
                <mxCell id="1110" value="sSistema&amp;nbsp;Análise de Fraude" style="shape=note;whiteSpace=wrap;html=1;backgroundOutline=1;darkOpacity=0.05;fillColor=#fad9d5;strokeColor=#ae4132;verticalAlign=middle;size=0;fontColor=#000000;" vertex="1" parent="1">
                    <mxGeometry x="5909" y="1753.8" width="120" height="91" as="geometry"/>
                </mxCell>
                <mxCell id="1112" value="" style="rounded=1;whiteSpace=wrap;html=1;fillColor=none;fontColor=#ffffff;strokeColor=#000000;strokeWidth=11;dashed=1;" vertex="1" parent="1">
                    <mxGeometry x="4642" y="1666" width="302" height="239" as="geometry"/>
                </mxCell>
                <mxCell id="1113" value="Sistemas de Geolocalização" style="text;html=1;strokeColor=none;fillColor=none;align=center;verticalAlign=middle;whiteSpace=wrap;rounded=0;dashed=1;fontSize=24;fontColor=#000000;" vertex="1" parent="1">
                    <mxGeometry x="4682" y="1694" width="206" height="30" as="geometry"/>
                </mxCell>
                <mxCell id="1114" value="Sistemas de Geolocalização" style="shape=note;whiteSpace=wrap;html=1;backgroundOutline=1;darkOpacity=0.05;fillColor=#fad9d5;strokeColor=#ae4132;verticalAlign=middle;size=0;fontColor=#000000;" vertex="1" parent="1">
                    <mxGeometry x="4739" y="1752.8" width="120" height="91" as="geometry"/>
                </mxCell>
                <mxCell id="1116" value="" style="rounded=1;whiteSpace=wrap;html=1;fillColor=none;fontColor=#ffffff;strokeColor=#000000;strokeWidth=11;dashed=1;" vertex="1" parent="1">
                    <mxGeometry x="2044" y="1434" width="302" height="239" as="geometry"/>
                </mxCell>
                <mxCell id="1117" value="Sistema de Autenticação de Dois Fatores (2FA)" style="shape=note;whiteSpace=wrap;html=1;backgroundOutline=1;darkOpacity=0.05;fillColor=#fad9d5;strokeColor=#ae4132;verticalAlign=middle;size=0;fontColor=#000000;" vertex="1" parent="1">
                    <mxGeometry x="2132.5" y="1520" width="120" height="91" as="geometry"/>
                </mxCell>
                <mxCell id="1118" value="Sistema de Autenticação de Dois Fatores (2FA)" style="text;html=1;strokeColor=none;fillColor=none;align=center;verticalAlign=middle;whiteSpace=wrap;rounded=0;dashed=1;fontSize=24;fontColor=#000000;" vertex="1" parent="1">
                    <mxGeometry x="2084" y="1462" width="206" height="30" as="geometry"/>
                </mxCell>
                <mxCell id="1119" value="" style="rounded=1;whiteSpace=wrap;html=1;fillColor=none;fontColor=#ffffff;strokeColor=#000000;strokeWidth=11;dashed=1;" vertex="1" parent="1">
                    <mxGeometry x="5612" y="1259" width="302" height="239" as="geometry"/>
                </mxCell>
                <mxCell id="1120" value="Serviço de Monitoramento de Crédito" style="text;html=1;strokeColor=none;fillColor=none;align=center;verticalAlign=middle;whiteSpace=wrap;rounded=0;dashed=1;fontSize=24;fontColor=#000000;" vertex="1" parent="1">
                    <mxGeometry x="5652" y="1287" width="206" height="30" as="geometry"/>
                </mxCell>
                <mxCell id="1121" value="Serviço de Monitoramento de Crédito" style="shape=note;whiteSpace=wrap;html=1;backgroundOutline=1;darkOpacity=0.05;fillColor=#fad9d5;strokeColor=#ae4132;verticalAlign=middle;size=0;fontColor=#000000;" vertex="1" parent="1">
                    <mxGeometry x="5709" y="1345.8" width="120" height="91" as="geometry"/>
                </mxCell>
                <mxCell id="1124" value="Registrar usuário&lt;br&gt;(criar conta)" style="shape=note;whiteSpace=wrap;html=1;backgroundOutline=1;darkOpacity=0.05;fillColor=#66B2FF;fontColor=#000000;strokeColor=#66B2FF;verticalAlign=middle;size=0;" vertex="1" parent="1">
                    <mxGeometry x="2212.25" y="815.4999999999995" width="120" height="91" as="geometry"/>
                </mxCell>
                <mxCell id="1125" value="Teremos login social" style="shape=note;whiteSpace=wrap;html=1;backgroundOutline=1;darkOpacity=0.05;fillColor=#d80073;fontColor=#ffffff;strokeColor=#A50040;verticalAlign=middle;size=0;" vertex="1" parent="1">
                    <mxGeometry x="2195" y="1171.49" width="120" height="91" as="geometry"/>
                </mxCell>
                <mxCell id="1126" value="Como vou tratar o npivel de acesso" style="shape=note;whiteSpace=wrap;html=1;backgroundOutline=1;darkOpacity=0.05;fillColor=#d80073;fontColor=#ffffff;strokeColor=#A50040;verticalAlign=middle;size=0;" vertex="1" parent="1">
                    <mxGeometry x="2482" y="1166" width="120" height="91" as="geometry"/>
                </mxCell>
                <mxCell id="1127" value="Verificar email" style="shape=note;whiteSpace=wrap;html=1;backgroundOutline=1;darkOpacity=0.05;fillColor=#66B2FF;fontColor=#000000;strokeColor=#66B2FF;verticalAlign=middle;size=0;" vertex="1" parent="1">
                    <mxGeometry x="3087" y="804.9999999999995" width="120" height="91" as="geometry"/>
                </mxCell>
                <mxCell id="1128" value="Realizar login" style="shape=note;whiteSpace=wrap;html=1;backgroundOutline=1;darkOpacity=0.05;fillColor=#66B2FF;fontColor=#000000;strokeColor=#66B2FF;verticalAlign=middle;size=0;" vertex="1" parent="1">
                    <mxGeometry x="3450" y="804.9999999999995" width="120" height="91" as="geometry"/>
                </mxCell>
                <mxCell id="1133" value="singUp" style="text;html=1;strokeColor=none;fillColor=none;align=center;verticalAlign=middle;whiteSpace=wrap;rounded=0;dashed=1;fontSize=24;fontColor=#000000;" vertex="1" parent="1">
                    <mxGeometry x="2583" y="499.99999999999994" width="297" height="30" as="geometry"/>
                </mxCell>
                <mxCell id="1134" value="Vericar autenticação" style="shape=note;whiteSpace=wrap;html=1;backgroundOutline=1;darkOpacity=0.05;fillColor=#B266FF;fontColor=#000000;strokeColor=#B266FF;verticalAlign=middle;size=0;" vertex="1" parent="1">
                    <mxGeometry x="3790" y="799.5" width="120" height="92" as="geometry"/>
                </mxCell>
                <mxCell id="1135" value="Usuário não registrado" style="shape=note;whiteSpace=wrap;html=1;backgroundOutline=1;darkOpacity=0.05;fillColor=#f0a30a;fontColor=#000000;strokeColor=#BD7000;size=0;" vertex="1" parent="1">
                    <mxGeometry x="3795" y="977" width="118" height="88" as="geometry"/>
                </mxCell>
                <mxCell id="1136" value="Acessar a conta" style="shape=note;whiteSpace=wrap;html=1;backgroundOutline=1;darkOpacity=0.05;fillColor=#66B2FF;fontColor=#000000;strokeColor=#66B2FF;verticalAlign=middle;size=0;" vertex="1" parent="1">
                    <mxGeometry x="4358" y="783.9999999999995" width="120" height="91" as="geometry"/>
                </mxCell>
                <mxCell id="1137" value="Soliciitar saldo" style="shape=note;whiteSpace=wrap;html=1;backgroundOutline=1;darkOpacity=0.05;fillColor=#66B2FF;fontColor=#000000;strokeColor=#66B2FF;verticalAlign=middle;size=0;" vertex="1" parent="1">
                    <mxGeometry x="4739" y="779.4999999999995" width="120" height="91" as="geometry"/>
                </mxCell>
                <mxCell id="1138" value="Realizar depósito" style="shape=note;whiteSpace=wrap;html=1;backgroundOutline=1;darkOpacity=0.05;fillColor=#66B2FF;fontColor=#000000;strokeColor=#66B2FF;verticalAlign=middle;size=0;" vertex="1" parent="1">
                    <mxGeometry x="5179" y="785.4999999999995" width="120" height="91" as="geometry"/>
                </mxCell>
                <mxCell id="1139" value="Realizar saque" style="shape=note;whiteSpace=wrap;html=1;backgroundOutline=1;darkOpacity=0.05;fillColor=#66B2FF;fontColor=#000000;strokeColor=#66B2FF;verticalAlign=middle;size=0;" vertex="1" parent="1">
                    <mxGeometry x="5587" y="780.9999999999995" width="120" height="91" as="geometry"/>
                </mxCell>
                <mxCell id="1140" value="Realizar transferência" style="shape=note;whiteSpace=wrap;html=1;backgroundOutline=1;darkOpacity=0.05;fillColor=#66B2FF;fontColor=#000000;strokeColor=#66B2FF;verticalAlign=middle;size=0;" vertex="1" parent="1">
                    <mxGeometry x="6037" y="776.0099999999995" width="120" height="91" as="geometry"/>
                </mxCell>
                <mxCell id="1141" value="Encerra a conta" style="shape=note;whiteSpace=wrap;html=1;backgroundOutline=1;darkOpacity=0.05;fillColor=#66B2FF;fontColor=#000000;strokeColor=#66B2FF;verticalAlign=middle;size=0;" vertex="1" parent="1">
                    <mxGeometry x="6461" y="777.9999999999995" width="120" height="91" as="geometry"/>
                </mxCell>
                <mxCell id="1145" value="user" style="shape=note;whiteSpace=wrap;html=1;backgroundOutline=1;darkOpacity=0.05;fillColor=#FFFF00;fontColor=#000000;strokeColor=#FFFF00;verticalAlign=middle;size=0;direction=north;fontSize=20;" vertex="1" parent="1">
                    <mxGeometry x="3045" y="880.81" width="76" height="63" as="geometry"/>
                </mxCell>
                <mxCell id="1146" value="user" style="shape=note;whiteSpace=wrap;html=1;backgroundOutline=1;darkOpacity=0.05;fillColor=#FFFF00;fontColor=#000000;strokeColor=#FFFF00;verticalAlign=middle;size=0;direction=north;fontSize=20;" vertex="1" parent="1">
                    <mxGeometry x="3408" y="876.5" width="76" height="63" as="geometry"/>
                </mxCell>
                <mxCell id="1147" value="user" style="shape=note;whiteSpace=wrap;html=1;backgroundOutline=1;darkOpacity=0.05;fillColor=#FFFF00;fontColor=#000000;strokeColor=#FFFF00;verticalAlign=middle;size=0;direction=north;fontSize=20;" vertex="1" parent="1">
                    <mxGeometry x="4314" y="867.01" width="76" height="63" as="geometry"/>
                </mxCell>
                <mxCell id="1148" value="user" style="shape=note;whiteSpace=wrap;html=1;backgroundOutline=1;darkOpacity=0.05;fillColor=#FFFF00;fontColor=#000000;strokeColor=#FFFF00;verticalAlign=middle;size=0;direction=north;fontSize=20;" vertex="1" parent="1">
                    <mxGeometry x="4703" y="853" width="76" height="63" as="geometry"/>
                </mxCell>
                <mxCell id="1149" value="user" style="shape=note;whiteSpace=wrap;html=1;backgroundOutline=1;darkOpacity=0.05;fillColor=#FFFF00;fontColor=#000000;strokeColor=#FFFF00;verticalAlign=middle;size=0;direction=north;fontSize=20;" vertex="1" parent="1">
                    <mxGeometry x="5132" y="858" width="76" height="63" as="geometry"/>
                </mxCell>
                <mxCell id="1150" value="user" style="shape=note;whiteSpace=wrap;html=1;backgroundOutline=1;darkOpacity=0.05;fillColor=#FFFF00;fontColor=#000000;strokeColor=#FFFF00;verticalAlign=middle;size=0;direction=north;fontSize=20;" vertex="1" parent="1">
                    <mxGeometry x="5536" y="856" width="76" height="63" as="geometry"/>
                </mxCell>
                <mxCell id="1151" value="user" style="shape=note;whiteSpace=wrap;html=1;backgroundOutline=1;darkOpacity=0.05;fillColor=#FFFF00;fontColor=#000000;strokeColor=#FFFF00;verticalAlign=middle;size=0;direction=north;fontSize=20;" vertex="1" parent="1">
                    <mxGeometry x="5991" y="853" width="76" height="63" as="geometry"/>
                </mxCell>
                <mxCell id="1152" value="user" style="shape=note;whiteSpace=wrap;html=1;backgroundOutline=1;darkOpacity=0.05;fillColor=#FFFF00;fontColor=#000000;strokeColor=#FFFF00;verticalAlign=middle;size=0;direction=north;fontSize=20;" vertex="1" parent="1">
                    <mxGeometry x="6412" y="846" width="76" height="63" as="geometry"/>
                </mxCell>
                <mxCell id="1153" value="Como&amp;nbsp;Registrar Tentativa de Login" style="shape=note;whiteSpace=wrap;html=1;backgroundOutline=1;darkOpacity=0.05;fillColor=#d80073;fontColor=#ffffff;strokeColor=#A50040;verticalAlign=middle;size=0;" vertex="1" parent="1">
                    <mxGeometry x="3605" y="1066" width="120" height="91" as="geometry"/>
                </mxCell>
                <mxCell id="1154" value="&lt;strong style=&quot;background-color: initial;&quot;&gt;Consultar Histórico de Transaçõe&lt;/strong&gt;" style="shape=note;whiteSpace=wrap;html=1;backgroundOutline=1;darkOpacity=0.05;fillColor=#d80073;fontColor=#ffffff;strokeColor=#A50040;verticalAlign=middle;size=0;" vertex="1" parent="1">
                    <mxGeometry x="6192" y="953" width="120" height="91" as="geometry"/>
                </mxCell>
                <mxCell id="1156" value="Conta" style="shape=note;whiteSpace=wrap;html=1;backgroundOutline=1;darkOpacity=0.05;verticalAlign=middle;size=0;direction=north;fontSize=20;fillColor=#fff2cc;strokeColor=#d6b656;fontColor=#000000;" vertex="1" parent="1">
                    <mxGeometry x="4158" y="458" width="177" height="175" as="geometry"/>
                </mxCell>
                <mxCell id="1159" value="&lt;span style=&quot;&quot;&gt;Autenticação&lt;/span&gt;" style="shape=note;whiteSpace=wrap;html=1;backgroundOutline=1;darkOpacity=0.05;verticalAlign=middle;size=0;direction=north;fontSize=20;fillColor=#fff2cc;strokeColor=#d6b656;fontColor=#000000;" vertex="1" parent="1">
                    <mxGeometry x="3417" y="458" width="177" height="175" as="geometry"/>
                </mxCell>
                <mxCell id="1160" value="&lt;span style=&quot;&quot;&gt;Uusuário&lt;/span&gt;" style="shape=note;whiteSpace=wrap;html=1;backgroundOutline=1;darkOpacity=0.05;verticalAlign=middle;size=0;direction=north;fontSize=20;fillColor=#fff2cc;strokeColor=#d6b656;fontColor=#000000;" vertex="1" parent="1">
                    <mxGeometry x="2439.5" y="430.19" width="177" height="175" as="geometry"/>
                </mxCell>
                <mxCell id="1161" value="" style="rounded=1;whiteSpace=wrap;html=1;fillColor=none;fontColor=#ffffff;strokeColor=#000000;strokeWidth=11;dashed=1;" vertex="1" parent="1">
                    <mxGeometry x="4267" y="666" width="2673" height="555" as="geometry"/>
                </mxCell>
            </root>
        </mxGraphModel>
    </diagram>
</mxfile>